<?xml version="1.0" encoding="UTF-8" standalone="no"?>
<!DOCTYPE svg PUBLIC "-//W3C//DTD SVG 1.1//EN" "http://www.w3.org/Graphics/SVG/1.1/DTD/svg11.dtd">
<svg xmlns="http://www.w3.org/2000/svg" xmlns:xl="http://www.w3.org/1999/xlink" xmlns:dc="http://purl.org/dc/elements/1.1/" version="1.1" viewBox="14.420197 89.9202 368.0588 369.57923" width="140" height="140">
  <defs/>
  <g id="Canvas_1" stroke-dasharray="none" fill="none" fill-opacity="1" stroke="none" stroke-opacity="1">
    <title>Canvas 1</title>
    <g id="Canvas_1_Layer_1">
      <title>Layer 1</title>
      <g id="Group_20">
        <g id="Graphic_4">
          <path d="M 133.58774 90.94042 L 175.61083 109.6503 C 178.63806 110.99811 179.9995 114.54477 178.65169 117.572 L 159.9418 159.59509 C 158.594 162.62231 155.04733 163.98375 152.0201 162.63594 L 109.99702 143.92606 C 106.9698 142.57825 105.60836 139.03159 106.95616 136.00436 L 125.66605 93.98127 C 127.01386 90.95405 130.56052 89.59261 133.58774 90.94042 Z" fill="#ccc"/>
          <path d="M 133.58774 90.94042 L 175.61083 109.6503 C 178.63806 110.99811 179.9995 114.54477 178.65169 117.572 L 159.9418 159.59509 C 158.594 162.62231 155.04733 163.98375 152.0201 162.63594 L 109.99702 143.92606 C 106.9698 142.57825 105.60836 139.03159 106.95616 136.00436 L 125.66605 93.98127 C 127.01386 90.95405 130.56052 89.59261 133.58774 90.94042 Z" stroke="black" stroke-linecap="round" stroke-linejoin="round" stroke-width="1"/>
          <text transform="translate(128.60683 99.66914) rotate(24)" fill="black">
            <tspan font-family="Helvetica" font-weight="bold" font-size="32" fill="black" x="12.445312" y="31">A</tspan>
          </text>
        </g>
        <g id="Graphic_5">
          <path d="M 201.1901 121.03893 L 243.2132 139.74882 C 246.24042 141.09662 247.60186 144.64329 246.25405 147.67051 L 227.54416 189.6936 C 226.19636 192.72082 222.6497 194.08226 219.62247 192.73445 L 177.59938 174.02457 C 174.57216 172.67676 173.21072 169.1301 174.55853 166.10288 L 193.26841 124.07978 C 194.61622 121.05256 198.16288 119.69112 201.1901 121.03893 Z" fill="#ccc"/>
          <path d="M 201.1901 121.03893 L 243.2132 139.74882 C 246.24042 141.09662 247.60186 144.64329 246.25405 147.67051 L 227.54416 189.6936 C 226.19636 192.72082 222.6497 194.08226 219.62247 192.73445 L 177.59938 174.02457 C 174.57216 172.67676 173.21072 169.1301 174.55853 166.10288 L 193.26841 124.07978 C 194.61622 121.05256 198.16288 119.69112 201.1901 121.03893 Z" stroke="black" stroke-linecap="round" stroke-linejoin="round" stroke-width="1"/>
          <text transform="translate(196.2092 129.76765) rotate(24)" fill="black">
            <tspan font-family="Helvetica" font-weight="bold" font-size="32" fill="black" x="11.554688" y="31">G</tspan>
          </text>
        </g>
        <g id="Graphic_7">
          <path d="M 268.79247 151.13744 L 310.81556 169.84733 C 313.8428 171.19514 315.20422 174.7418 313.8564 177.76902 L 295.14653 219.7921 C 293.79872 222.81934 290.25206 224.18077 287.22484 222.83297 C 287.22484 222.83297 287.22484 222.83297 287.22484 222.83297 L 245.20175 204.12308 C 242.17452 202.77527 240.81309 199.2286 242.1609 196.20139 L 260.87078 154.1783 C 262.2186 151.15107 265.76525 149.78964 268.79247 151.13744 Z" fill="#ccc"/>
          <path d="M 268.79247 151.13744 L 310.81556 169.84733 C 313.8428 171.19514 315.20422 174.7418 313.8564 177.76902 L 295.14653 219.7921 C 293.79872 222.81934 290.25206 224.18077 287.22484 222.83297 C 287.22484 222.83297 287.22484 222.83297 287.22484 222.83297 L 245.20175 204.12308 C 242.17452 202.77527 240.81309 199.2286 242.1609 196.20139 L 260.87078 154.1783 C 262.2186 151.15107 265.76525 149.78964 268.79247 151.13744 Z" stroke="black" stroke-linecap="round" stroke-linejoin="round" stroke-width="1"/>
          <text transform="translate(263.81156 159.86616) rotate(24)" fill="black">
            <tspan font-family="Helvetica" font-weight="bold" font-size="32" fill="black" x="13.328125" y="31">E</tspan>
          </text>
        </g>
        <g id="Graphic_6">
          <path d="M 336.39483 181.23595 L 378.41793 199.94584 C 381.44515 201.29365 382.8066 204.8403 381.4588 207.86753 L 362.7489 249.89062 C 361.4011 252.91785 357.85442 254.27928 354.8272 252.93148 C 354.8272 252.93148 354.8272 252.93148 354.8272 252.93148 L 312.8041 234.2216 C 309.7769 232.87378 308.41545 229.32712 309.76326 226.2999 L 328.47314 184.2768 C 329.82095 181.24958 333.3676 179.88815 336.39483 181.23595 Z" fill="#ccc"/>
          <path d="M 336.39483 181.23595 L 378.41793 199.94584 C 381.44515 201.29365 382.8066 204.8403 381.4588 207.86753 L 362.7489 249.89062 C 361.4011 252.91785 357.85442 254.27928 354.8272 252.93148 C 354.8272 252.93148 354.8272 252.93148 354.8272 252.93148 L 312.8041 234.2216 C 309.7769 232.87378 308.41545 229.32712 309.76326 226.2999 L 328.47314 184.2768 C 329.82095 181.24958 333.3676 179.88815 336.39483 181.23595 Z" stroke="black" stroke-linecap="round" stroke-linejoin="round" stroke-width="1"/>
          <text transform="translate(331.41392 189.96467) rotate(24)" fill="black">
            <tspan font-family="Helvetica" font-weight="bold" font-size="32" fill="black" x="12.445312" y="31">R</tspan>
          </text>
        </g>
        <g id="Graphic_11">
          <path d="M 103.0825 159.45633 L 145.10559 178.16621 C 148.13281 179.51402 149.49425 183.06068 148.14644 186.0879 L 129.43655 228.111 C 128.08875 231.13822 124.54208 232.49966 121.51486 231.15185 L 79.49177 212.44197 C 76.46455 211.09416 75.10311 207.5475 76.45092 204.52027 L 95.1608 162.49718 C 96.50861 159.46996 100.05527 158.10852 103.0825 159.45633 Z" fill="#ccc"/>
          <path d="M 103.0825 159.45633 L 145.10559 178.16621 C 148.13281 179.51402 149.49425 183.06068 148.14644 186.0879 L 129.43655 228.111 C 128.08875 231.13822 124.54208 232.49966 121.51486 231.15185 L 79.49177 212.44197 C 76.46455 211.09416 75.10311 207.5475 76.45092 204.52027 L 95.1608 162.49718 C 96.50861 159.46996 100.05527 158.10852 103.0825 159.45633 Z" stroke="black" stroke-linecap="round" stroke-linejoin="round" stroke-width="1"/>
          <text transform="translate(98.10158 168.18505) rotate(24)" fill="black">
            <tspan font-family="Helvetica" font-weight="bold" font-size="32" fill="black" x="12.445312" y="31">D</tspan>
          </text>
        </g>
        <g id="Graphic_10">
          <path d="M 170.68486 189.55484 L 212.70795 208.26473 C 215.73517 209.61253 217.0966 213.1592 215.7488 216.18642 L 197.03892 258.2095 C 195.6911 261.23673 192.14445 262.59817 189.11722 261.25036 L 147.09413 242.54048 C 144.06691 241.19267 142.70547 237.646 144.05328 234.61878 C 144.05328 234.61878 144.05328 234.61878 144.05328 234.61878 L 162.76317 192.5957 C 164.11097 189.56847 167.65764 188.20703 170.68486 189.55484 Z" fill="#ccc"/>
          <path d="M 170.68486 189.55484 L 212.70795 208.26473 C 215.73517 209.61253 217.0966 213.1592 215.7488 216.18642 L 197.03892 258.2095 C 195.6911 261.23673 192.14445 262.59817 189.11722 261.25036 L 147.09413 242.54048 C 144.06691 241.19267 142.70547 237.646 144.05328 234.61878 C 144.05328 234.61878 144.05328 234.61878 144.05328 234.61878 L 162.76317 192.5957 C 164.11097 189.56847 167.65764 188.20703 170.68486 189.55484 Z" stroke="black" stroke-linecap="round" stroke-linejoin="round" stroke-width="1"/>
          <text transform="translate(165.70395 198.28356) rotate(24)" fill="black">
            <tspan font-family="Helvetica" font-weight="bold" font-size="32" fill="black" x="13.328125" y="31">E</tspan>
          </text>
        </g>
        <g id="Graphic_9">
          <path d="M 238.28722 219.65335 L 280.3103 238.36324 C 283.33754 239.71104 284.69897 243.2577 283.35117 246.28493 L 264.64128 288.30802 C 263.29347 291.33524 259.7468 292.69668 256.7196 291.34887 L 214.6965 272.639 C 211.66927 271.29118 210.30784 267.74452 211.65564 264.7173 C 211.65564 264.7173 211.65564 264.7173 211.65564 264.7173 L 230.36553 222.6942 C 231.71334 219.66698 235.26 218.30555 238.28722 219.65335 Z" fill="#ccc"/>
          <path d="M 238.28722 219.65335 L 280.3103 238.36324 C 283.33754 239.71104 284.69897 243.2577 283.35117 246.28493 L 264.64128 288.30802 C 263.29347 291.33524 259.7468 292.69668 256.7196 291.34887 L 214.6965 272.639 C 211.66927 271.29118 210.30784 267.74452 211.65564 264.7173 C 211.65564 264.7173 211.65564 264.7173 211.65564 264.7173 L 230.36553 222.6942 C 231.71334 219.66698 235.26 218.30555 238.28722 219.65335 Z" stroke="black" stroke-linecap="round" stroke-linejoin="round" stroke-width="1"/>
          <text transform="translate(233.3063 228.38207) rotate(24)" fill="black">
            <tspan font-family="Helvetica" font-weight="bold" font-size="32" fill="black" x="12.445312" y="31">H</tspan>
          </text>
        </g>
        <g id="Graphic_8">
          <path d="M 305.8896 249.75186 L 347.91268 268.46175 C 350.9399 269.80956 352.30134 273.35622 350.95353 276.38344 L 332.24364 318.40653 C 330.89584 321.43376 327.34918 322.7952 324.32195 321.4474 L 282.29886 302.7375 C 279.27164 301.3897 277.9102 297.84303 279.258 294.8158 L 297.9679 252.79272 C 299.3157 249.7655 302.86236 248.40406 305.8896 249.75186 Z" fill="#ccc"/>
          <path d="M 305.8896 249.75186 L 347.91268 268.46175 C 350.9399 269.80956 352.30134 273.35622 350.95353 276.38344 L 332.24364 318.40653 C 330.89584 321.43376 327.34918 322.7952 324.32195 321.4474 L 282.29886 302.7375 C 279.27164 301.3897 277.9102 297.84303 279.258 294.8158 L 297.9679 252.79272 C 299.3157 249.7655 302.86236 248.40406 305.8896 249.75186 Z" stroke="black" stroke-linecap="round" stroke-linejoin="round" stroke-width="1"/>
          <text transform="translate(300.90867 258.48058) rotate(24)" fill="black">
            <tspan font-family="Helvetica" font-weight="bold" font-size="32" fill="black" x="12.445312" y="31">A</tspan>
          </text>
        </g>
        <g id="Graphic_19">
          <path d="M 72.57725 227.97224 L 114.60034 246.68212 C 117.62756 248.02993 118.989 251.5766 117.64119 254.60382 L 98.9313 296.6269 C 97.5835 299.65413 94.03684 301.01557 91.00961 299.66776 L 48.98652 280.95788 C 45.9593 279.61007 44.59786 276.0634 45.94567 273.03618 L 64.65555 231.0131 C 66.00336 227.98587 69.55002 226.62443 72.57725 227.97224 Z" fill="#ccc"/>
          <path d="M 72.57725 227.97224 L 114.60034 246.68212 C 117.62756 248.02993 118.989 251.5766 117.64119 254.60382 L 98.9313 296.6269 C 97.5835 299.65413 94.03684 301.01557 91.00961 299.66776 L 48.98652 280.95788 C 45.9593 279.61007 44.59786 276.0634 45.94567 273.03618 L 64.65555 231.0131 C 66.00336 227.98587 69.55002 226.62443 72.57725 227.97224 Z" stroke="black" stroke-linecap="round" stroke-linejoin="round" stroke-width="1"/>
          <text transform="translate(67.596334 236.70096) rotate(24)" fill="black">
            <tspan font-family="Helvetica" font-weight="bold" font-size="32" fill="black" x="13.328125" y="31">V</tspan>
          </text>
        </g>
        <g id="Graphic_18">
          <path d="M 140.17961 258.07075 L 182.2027 276.78064 C 185.22992 278.12844 186.59136 281.6751 185.24355 284.70233 C 185.24355 284.70233 185.24355 284.70233 185.24355 284.70233 L 166.53367 326.7254 C 165.18586 329.75264 161.6392 331.11408 158.61198 329.76627 L 116.58888 311.0564 C 113.56166 309.70858 112.20023 306.1619 113.54803 303.1347 L 132.25792 261.1116 C 133.60572 258.08438 137.15239 256.72294 140.17961 258.07075 Z" fill="#ccc"/>
          <path d="M 140.17961 258.07075 L 182.2027 276.78064 C 185.22992 278.12844 186.59136 281.6751 185.24355 284.70233 C 185.24355 284.70233 185.24355 284.70233 185.24355 284.70233 L 166.53367 326.7254 C 165.18586 329.75264 161.6392 331.11408 158.61198 329.76627 L 116.58888 311.0564 C 113.56166 309.70858 112.20023 306.1619 113.54803 303.1347 L 132.25792 261.1116 C 133.60572 258.08438 137.15239 256.72294 140.17961 258.07075 Z" stroke="black" stroke-linecap="round" stroke-linejoin="round" stroke-width="1"/>
          <text transform="translate(135.1987 266.79947) rotate(24)" fill="black">
            <tspan font-family="Helvetica" font-weight="bold" font-size="32" fill="black" x="14.226562" y="31">T</tspan>
          </text>
        </g>
        <g id="Graphic_17">
          <path d="M 207.78197 288.16926 L 249.80507 306.87915 C 252.8323 308.22695 254.19372 311.7736 252.84592 314.80084 C 252.84592 314.80084 252.84592 314.80084 252.84592 314.80084 L 234.13603 356.82393 C 232.78823 359.85115 229.24156 361.2126 226.21434 359.8648 L 184.19125 341.1549 C 181.16403 339.8071 179.80259 336.26043 181.1504 333.2332 C 181.1504 333.2332 181.1504 333.2332 181.1504 333.2332 L 199.86028 291.2101 C 201.2081 288.1829 204.75475 286.82146 207.78197 288.16926 Z" fill="#ccc"/>
          <path d="M 207.78197 288.16926 L 249.80507 306.87915 C 252.8323 308.22695 254.19372 311.7736 252.84592 314.80084 C 252.84592 314.80084 252.84592 314.80084 252.84592 314.80084 L 234.13603 356.82393 C 232.78823 359.85115 229.24156 361.2126 226.21434 359.8648 L 184.19125 341.1549 C 181.16403 339.8071 179.80259 336.26043 181.1504 333.2332 C 181.1504 333.2332 181.1504 333.2332 181.1504 333.2332 L 199.86028 291.2101 C 201.2081 288.1829 204.75475 286.82146 207.78197 288.16926 Z" stroke="black" stroke-linecap="round" stroke-linejoin="round" stroke-width="1"/>
          <text transform="translate(202.80106 296.89798) rotate(24)" fill="black">
            <tspan font-family="Helvetica" font-weight="bold" font-size="32" fill="black" x="10.671875" y="31">M</tspan>
          </text>
        </g>
        <g id="Graphic_16">
          <path d="M 275.38434 318.26777 L 317.40743 336.97766 C 320.43465 338.32547 321.7961 341.87213 320.4483 344.89935 L 301.7384 386.92244 C 300.3906 389.94967 296.84393 391.3111 293.8167 389.9633 L 251.7936 371.2534 C 248.7664 369.9056 247.40495 366.35894 248.75276 363.3317 C 248.75276 363.3317 248.75276 363.3317 248.75276 363.3317 L 267.46265 321.30863 C 268.81045 318.2814 272.3571 316.91997 275.38434 318.26777 Z" fill="#ccc"/>
          <path d="M 275.38434 318.26777 L 317.40743 336.97766 C 320.43465 338.32547 321.7961 341.87213 320.4483 344.89935 L 301.7384 386.92244 C 300.3906 389.94967 296.84393 391.3111 293.8167 389.9633 L 251.7936 371.2534 C 248.7664 369.9056 247.40495 366.35894 248.75276 363.3317 C 248.75276 363.3317 248.75276 363.3317 248.75276 363.3317 L 267.46265 321.30863 C 268.81045 318.2814 272.3571 316.91997 275.38434 318.26777 Z" stroke="black" stroke-linecap="round" stroke-linejoin="round" stroke-width="1"/>
          <text transform="translate(270.40343 326.9965) rotate(24)" fill="black">
            <tspan font-family="Helvetica" font-weight="bold" font-size="32" fill="black" x="13.328125" y="31">E</tspan>
          </text>
        </g>
        <g id="Graphic_15">
          <path d="M 42.072 296.48815 L 84.09509 315.19803 C 87.12231 316.54584 88.48375 320.0925 87.13594 323.11973 C 87.13594 323.11973 87.13594 323.11973 87.13594 323.11973 L 68.42606 365.1428 C 67.07825 368.17004 63.53159 369.53148 60.504364 368.18367 L 18.481273 349.4738 C 15.45405 348.12598 14.092613 344.5793 15.44042 341.5521 L 34.150305 299.529 C 35.49811 296.50178 39.044775 295.14034 42.072 296.48815 Z" fill="#ccc"/>
          <path d="M 42.072 296.48815 L 84.09509 315.19803 C 87.12231 316.54584 88.48375 320.0925 87.13594 323.11973 C 87.13594 323.11973 87.13594 323.11973 87.13594 323.11973 L 68.42606 365.1428 C 67.07825 368.17004 63.53159 369.53148 60.504364 368.18367 L 18.481273 349.4738 C 15.45405 348.12598 14.092613 344.5793 15.44042 341.5521 L 34.150305 299.529 C 35.49811 296.50178 39.044775 295.14034 42.072 296.48815 Z" stroke="black" stroke-linecap="round" stroke-linejoin="round" stroke-width="1"/>
          <text transform="translate(37.091086 305.21687) rotate(24)" fill="black">
            <tspan font-family="Helvetica" font-weight="bold" font-size="32" fill="black" x="12.445312" y="31">H</tspan>
          </text>
        </g>
        <g id="Graphic_14">
          <path d="M 109.67436 326.58666 L 151.69745 345.29654 C 154.72468 346.64435 156.08611 350.191 154.7383 353.21824 C 154.7383 353.21824 154.7383 353.21824 154.7383 353.21824 L 136.02842 395.24133 C 134.68061 398.26855 131.13395 399.63 128.10673 398.2822 L 86.08364 379.5723 C 83.05641 378.2245 81.69498 374.67783 83.04278 371.6506 C 83.04278 371.6506 83.04278 371.6506 83.04278 371.6506 L 101.75267 329.6275 C 103.10048 326.6003 106.64714 325.23885 109.67436 326.58666 Z" fill="#ccc"/>
          <path d="M 109.67436 326.58666 L 151.69745 345.29654 C 154.72468 346.64435 156.08611 350.191 154.7383 353.21824 C 154.7383 353.21824 154.7383 353.21824 154.7383 353.21824 L 136.02842 395.24133 C 134.68061 398.26855 131.13395 399.63 128.10673 398.2822 L 86.08364 379.5723 C 83.05641 378.2245 81.69498 374.67783 83.04278 371.6506 C 83.04278 371.6506 83.04278 371.6506 83.04278 371.6506 L 101.75267 329.6275 C 103.10048 326.6003 106.64714 325.23885 109.67436 326.58666 Z" stroke="black" stroke-linecap="round" stroke-linejoin="round" stroke-width="1"/>
          <text transform="translate(104.69345 335.31538) rotate(24)" fill="black">
            <tspan font-family="Helvetica" font-weight="bold" font-size="32" fill="black" x="12.445312" y="31">A</tspan>
          </text>
        </g>
        <g id="Graphic_13">
          <path d="M 177.27673 356.68517 L 219.29982 375.39506 C 222.32704 376.74286 223.68848 380.28953 222.34067 383.31675 C 222.34067 383.31675 222.34067 383.31675 222.34067 383.31675 L 203.63078 425.33984 C 202.28298 428.36706 198.73631 429.7285 195.7091 428.3807 L 153.686 409.6708 C 150.65878 408.323 149.29734 404.77634 150.64515 401.7491 C 150.64515 401.7491 150.64515 401.7491 150.64515 401.7491 L 169.35503 359.72602 C 170.70284 356.6988 174.2495 355.33736 177.27673 356.68517 Z" fill="#ccc"/>
          <path d="M 177.27673 356.68517 L 219.29982 375.39506 C 222.32704 376.74286 223.68848 380.28953 222.34067 383.31675 C 222.34067 383.31675 222.34067 383.31675 222.34067 383.31675 L 203.63078 425.33984 C 202.28298 428.36706 198.73631 429.7285 195.7091 428.3807 L 153.686 409.6708 C 150.65878 408.323 149.29734 404.77634 150.64515 401.7491 C 150.64515 401.7491 150.64515 401.7491 150.64515 401.7491 L 169.35503 359.72602 C 170.70284 356.6988 174.2495 355.33736 177.27673 356.68517 Z" stroke="black" stroke-linecap="round" stroke-linejoin="round" stroke-width="1"/>
          <text transform="translate(172.29581 365.4139) rotate(24)" fill="black">
            <tspan font-family="Helvetica" font-weight="bold" font-size="32" fill="black" x="14.226562" y="31">T</tspan>
          </text>
        </g>
        <g id="Graphic_12">
          <path d="M 244.8791 386.7837 L 286.90218 405.49357 C 289.9294 406.84137 291.29084 410.38804 289.94303 413.41526 C 289.94303 413.41526 289.94303 413.41526 289.94303 413.41526 L 271.23315 455.43835 C 269.88534 458.4656 266.33868 459.827 263.31146 458.4792 L 221.28836 439.7693 C 218.26114 438.4215 216.8997 434.87485 218.2475 431.84763 C 218.2475 431.84763 218.2475 431.84763 218.2475 431.84763 L 236.9574 389.82454 C 238.3052 386.7973 241.85187 385.43588 244.8791 386.7837 Z" fill="#ccc"/>
          <path d="M 244.8791 386.7837 L 286.90218 405.49357 C 289.9294 406.84137 291.29084 410.38804 289.94303 413.41526 C 289.94303 413.41526 289.94303 413.41526 289.94303 413.41526 L 271.23315 455.43835 C 269.88534 458.4656 266.33868 459.827 263.31146 458.4792 L 221.28836 439.7693 C 218.26114 438.4215 216.8997 434.87485 218.2475 431.84763 C 218.2475 431.84763 218.2475 431.84763 218.2475 431.84763 L 236.9574 389.82454 C 238.3052 386.7973 241.85187 385.43588 244.8791 386.7837 Z" stroke="black" stroke-linecap="round" stroke-linejoin="round" stroke-width="1"/>
          <text transform="translate(239.89818 395.5124) rotate(24)" fill="black">
            <tspan font-family="Helvetica" font-weight="bold" font-size="32" fill="black" x="13.328125" y="31">E</tspan>
          </text>
        </g>
      </g>
    </g>
  </g>
</svg>
