<?xml version="1.0" encoding="UTF-8" standalone="no"?>
<!DOCTYPE svg PUBLIC "-//W3C//DTD SVG 1.1//EN" "http://www.w3.org/Graphics/SVG/1.1/DTD/svg11.dtd">
<svg xmlns:xl="http://www.w3.org/1999/xlink" xmlns="http://www.w3.org/2000/svg" version="1.1" xmlns:dc="http://purl.org/dc/elements/1.1/" viewBox="138 154 281 284" width="70" height="70">
  <defs/>
  <metadata> Produced by OmniGraffle 7.22.5\n2024-02-01 20:50:31 +0000</metadata>
  <g id="Canvas_1" stroke="none" stroke-opacity="1" stroke-dasharray="none" fill="none" fill-opacity="1">
    <title>Canvas 1</title>
    <g id="Canvas_1_Layer_1">
      <title>Layer 1</title>
      <g id="Graphic_4">
        <path d="M 144.5 154.5 L 190.5 154.5 C 193.8137 154.5 196.5 157.1863 196.5 160.5 L 196.5 206.5 C 196.5 209.8137 193.8137 212.5 190.5 212.5 L 144.5 212.5 C 141.18629 212.5 138.5 209.8137 138.5 206.5 L 138.5 160.5 C 138.5 157.1863 141.18629 154.5 144.5 154.5 Z" fill="#ccc"/>
        <path d="M 144.5 154.5 L 190.5 154.5 C 193.8137 154.5 196.5 157.1863 196.5 160.5 L 196.5 206.5 C 196.5 209.8137 193.8137 212.5 190.5 212.5 L 144.5 212.5 C 141.18629 212.5 138.5 209.8137 138.5 206.5 L 138.5 160.5 C 138.5 157.1863 141.18629 154.5 144.5 154.5 Z" stroke="black" stroke-linecap="round" stroke-linejoin="round" stroke-width="1"/>
        <text transform="translate(143.5 164.5)" fill="black">
          <tspan font-family="Helvetica" font-weight="bold" font-size="32" fill="black" x="12.445312" y="31">A</tspan>
        </text>
      </g>
      <g id="Graphic_5">
        <path d="M 218.5 154.5 L 264.5 154.5 C 267.8137 154.5 270.5 157.1863 270.5 160.5 L 270.5 206.5 C 270.5 209.8137 267.8137 212.5 264.5 212.5 L 218.5 212.5 C 215.1863 212.5 212.5 209.8137 212.5 206.5 L 212.5 160.5 C 212.5 157.1863 215.1863 154.5 218.5 154.5 Z" fill="#ccc"/>
        <path d="M 218.5 154.5 L 264.5 154.5 C 267.8137 154.5 270.5 157.1863 270.5 160.5 L 270.5 206.5 C 270.5 209.8137 267.8137 212.5 264.5 212.5 L 218.5 212.5 C 215.1863 212.5 212.5 209.8137 212.5 206.5 L 212.5 160.5 C 212.5 157.1863 215.1863 154.5 218.5 154.5 Z" stroke="black" stroke-linecap="round" stroke-linejoin="round" stroke-width="1"/>
        <text transform="translate(217.5 164.5)" fill="black">
          <tspan font-family="Helvetica" font-weight="bold" font-size="32" fill="black" x="11.554688" y="31">G</tspan>
        </text>
      </g>
      <g id="Graphic_7">
        <path d="M 292.5 154.5 L 338.5 154.5 C 341.8137 154.5 344.5 157.1863 344.5 160.5 L 344.5 206.5 C 344.5 209.8137 341.8137 212.5 338.5 212.5 L 292.5 212.5 C 289.1863 212.5 286.5 209.8137 286.5 206.5 L 286.5 160.5 C 286.5 157.1863 289.1863 154.5 292.5 154.5 Z" fill="#ccc"/>
        <path d="M 292.5 154.5 L 338.5 154.5 C 341.8137 154.5 344.5 157.1863 344.5 160.5 L 344.5 206.5 C 344.5 209.8137 341.8137 212.5 338.5 212.5 L 292.5 212.5 C 289.1863 212.5 286.5 209.8137 286.5 206.5 L 286.5 160.5 C 286.5 157.1863 289.1863 154.5 292.5 154.5 Z" stroke="black" stroke-linecap="round" stroke-linejoin="round" stroke-width="1"/>
        <text transform="translate(291.5 164.5)" fill="black">
          <tspan font-family="Helvetica" font-weight="bold" font-size="32" fill="black" x="13.328125" y="31">E</tspan>
        </text>
      </g>
      <g id="Graphic_6">
        <path d="M 366.5 154.5 L 412.5 154.5 C 415.8137 154.5 418.5 157.1863 418.5 160.5 L 418.5 206.5 C 418.5 209.8137 415.8137 212.5 412.5 212.5 L 366.5 212.5 C 363.1863 212.5 360.5 209.8137 360.5 206.5 L 360.5 160.5 C 360.5 157.1863 363.1863 154.5 366.5 154.5 Z" fill="#ccc"/>
        <path d="M 366.5 154.5 L 412.5 154.5 C 415.8137 154.5 418.5 157.1863 418.5 160.5 L 418.5 206.5 C 418.5 209.8137 415.8137 212.5 412.5 212.5 L 366.5 212.5 C 363.1863 212.5 360.5 209.8137 360.5 206.5 L 360.5 160.5 C 360.5 157.1863 363.1863 154.5 366.5 154.5 Z" stroke="black" stroke-linecap="round" stroke-linejoin="round" stroke-width="1"/>
        <text transform="translate(365.5 164.5)" fill="black">
          <tspan font-family="Helvetica" font-weight="bold" font-size="32" fill="black" x="12.445312" y="31">R</tspan>
        </text>
      </g>
      <g id="Graphic_11">
        <path d="M 144.5 229.5 L 190.5 229.5 C 193.8137 229.5 196.5 232.1863 196.5 235.5 L 196.5 281.5 C 196.5 284.8137 193.8137 287.5 190.5 287.5 L 144.5 287.5 C 141.18629 287.5 138.5 284.8137 138.5 281.5 L 138.5 235.5 C 138.5 232.1863 141.18629 229.5 144.5 229.5 Z" fill="#ccc"/>
        <path d="M 144.5 229.5 L 190.5 229.5 C 193.8137 229.5 196.5 232.1863 196.5 235.5 L 196.5 281.5 C 196.5 284.8137 193.8137 287.5 190.5 287.5 L 144.5 287.5 C 141.18629 287.5 138.5 284.8137 138.5 281.5 L 138.5 235.5 C 138.5 232.1863 141.18629 229.5 144.5 229.5 Z" stroke="black" stroke-linecap="round" stroke-linejoin="round" stroke-width="1"/>
        <text transform="translate(143.5 239.5)" fill="black">
          <tspan font-family="Helvetica" font-weight="bold" font-size="32" fill="black" x="12.445312" y="31">D</tspan>
        </text>
      </g>
      <g id="Graphic_10">
        <path d="M 218.5 229.5 L 264.5 229.5 C 267.8137 229.5 270.5 232.1863 270.5 235.5 L 270.5 281.5 C 270.5 284.8137 267.8137 287.5 264.5 287.5 L 218.5 287.5 C 215.1863 287.5 212.5 284.8137 212.5 281.5 L 212.5 235.5 C 212.5 232.1863 215.1863 229.5 218.5 229.5 Z" fill="#ccc"/>
        <path d="M 218.5 229.5 L 264.5 229.5 C 267.8137 229.5 270.5 232.1863 270.5 235.5 L 270.5 281.5 C 270.5 284.8137 267.8137 287.5 264.5 287.5 L 218.5 287.5 C 215.1863 287.5 212.5 284.8137 212.5 281.5 L 212.5 235.5 C 212.5 232.1863 215.1863 229.5 218.5 229.5 Z" stroke="black" stroke-linecap="round" stroke-linejoin="round" stroke-width="1"/>
        <text transform="translate(217.5 239.5)" fill="black">
          <tspan font-family="Helvetica" font-weight="bold" font-size="32" fill="black" x="13.328125" y="31">E</tspan>
        </text>
      </g>
      <g id="Graphic_9">
        <path d="M 292.5 229.5 L 338.5 229.5 C 341.8137 229.5 344.5 232.1863 344.5 235.5 L 344.5 281.5 C 344.5 284.8137 341.8137 287.5 338.5 287.5 L 292.5 287.5 C 289.1863 287.5 286.5 284.8137 286.5 281.5 L 286.5 235.5 C 286.5 232.1863 289.1863 229.5 292.5 229.5 Z" fill="#ccc"/>
        <path d="M 292.5 229.5 L 338.5 229.5 C 341.8137 229.5 344.5 232.1863 344.5 235.5 L 344.5 281.5 C 344.5 284.8137 341.8137 287.5 338.5 287.5 L 292.5 287.5 C 289.1863 287.5 286.5 284.8137 286.5 281.5 L 286.5 235.5 C 286.5 232.1863 289.1863 229.5 292.5 229.5 Z" stroke="black" stroke-linecap="round" stroke-linejoin="round" stroke-width="1"/>
        <text transform="translate(291.5 239.5)" fill="black">
          <tspan font-family="Helvetica" font-weight="bold" font-size="32" fill="black" x="12.445312" y="31">H</tspan>
        </text>
      </g>
      <g id="Graphic_8">
        <path d="M 366.5 229.5 L 412.5 229.5 C 415.8137 229.5 418.5 232.1863 418.5 235.5 L 418.5 281.5 C 418.5 284.8137 415.8137 287.5 412.5 287.5 L 366.5 287.5 C 363.1863 287.5 360.5 284.8137 360.5 281.5 L 360.5 235.5 C 360.5 232.1863 363.1863 229.5 366.5 229.5 Z" fill="#ccc"/>
        <path d="M 366.5 229.5 L 412.5 229.5 C 415.8137 229.5 418.5 232.1863 418.5 235.5 L 418.5 281.5 C 418.5 284.8137 415.8137 287.5 412.5 287.5 L 366.5 287.5 C 363.1863 287.5 360.5 284.8137 360.5 281.5 L 360.5 235.5 C 360.5 232.1863 363.1863 229.5 366.5 229.5 Z" stroke="black" stroke-linecap="round" stroke-linejoin="round" stroke-width="1"/>
        <text transform="translate(365.5 239.5)" fill="black">
          <tspan font-family="Helvetica" font-weight="bold" font-size="32" fill="black" x="12.445312" y="31">A</tspan>
        </text>
      </g>
      <g id="Graphic_19">
        <path d="M 144.5 304.5 L 190.5 304.5 C 193.8137 304.5 196.5 307.1863 196.5 310.5 L 196.5 356.5 C 196.5 359.8137 193.8137 362.5 190.5 362.5 L 144.5 362.5 C 141.18629 362.5 138.5 359.8137 138.5 356.5 L 138.5 310.5 C 138.5 307.1863 141.18629 304.5 144.5 304.5 Z" fill="#ccc"/>
        <path d="M 144.5 304.5 L 190.5 304.5 C 193.8137 304.5 196.5 307.1863 196.5 310.5 L 196.5 356.5 C 196.5 359.8137 193.8137 362.5 190.5 362.5 L 144.5 362.5 C 141.18629 362.5 138.5 359.8137 138.5 356.5 L 138.5 310.5 C 138.5 307.1863 141.18629 304.5 144.5 304.5 Z" stroke="black" stroke-linecap="round" stroke-linejoin="round" stroke-width="1"/>
        <text transform="translate(143.5 314.5)" fill="black">
          <tspan font-family="Helvetica" font-weight="bold" font-size="32" fill="black" x="13.328125" y="31">V</tspan>
        </text>
      </g>
      <g id="Graphic_18">
        <path d="M 218.5 304.5 L 264.5 304.5 C 267.8137 304.5 270.5 307.1863 270.5 310.5 L 270.5 356.5 C 270.5 359.8137 267.8137 362.5 264.5 362.5 L 218.5 362.5 C 215.1863 362.5 212.5 359.8137 212.5 356.5 L 212.5 310.5 C 212.5 307.1863 215.1863 304.5 218.5 304.5 Z" fill="#ccc"/>
        <path d="M 218.5 304.5 L 264.5 304.5 C 267.8137 304.5 270.5 307.1863 270.5 310.5 L 270.5 356.5 C 270.5 359.8137 267.8137 362.5 264.5 362.5 L 218.5 362.5 C 215.1863 362.5 212.5 359.8137 212.5 356.5 L 212.5 310.5 C 212.5 307.1863 215.1863 304.5 218.5 304.5 Z" stroke="black" stroke-linecap="round" stroke-linejoin="round" stroke-width="1"/>
        <text transform="translate(217.5 314.5)" fill="black">
          <tspan font-family="Helvetica" font-weight="bold" font-size="32" fill="black" x="14.226562" y="31">T</tspan>
        </text>
      </g>
      <g id="Graphic_17">
        <path d="M 292.5 304.5 L 338.5 304.5 C 341.8137 304.5 344.5 307.1863 344.5 310.5 L 344.5 356.5 C 344.5 359.8137 341.8137 362.5 338.5 362.5 L 292.5 362.5 C 289.1863 362.5 286.5 359.8137 286.5 356.5 L 286.5 310.5 C 286.5 307.1863 289.1863 304.5 292.5 304.5 Z" fill="#ccc"/>
        <path d="M 292.5 304.5 L 338.5 304.5 C 341.8137 304.5 344.5 307.1863 344.5 310.5 L 344.5 356.5 C 344.5 359.8137 341.8137 362.5 338.5 362.5 L 292.5 362.5 C 289.1863 362.5 286.5 359.8137 286.5 356.5 L 286.5 310.5 C 286.5 307.1863 289.1863 304.5 292.5 304.5 Z" stroke="black" stroke-linecap="round" stroke-linejoin="round" stroke-width="1"/>
        <text transform="translate(291.5 314.5)" fill="black">
          <tspan font-family="Helvetica" font-weight="bold" font-size="32" fill="black" x="10.671875" y="31">M</tspan>
        </text>
      </g>
      <g id="Graphic_16">
        <path d="M 366.5 304.5 L 412.5 304.5 C 415.8137 304.5 418.5 307.1863 418.5 310.5 L 418.5 356.5 C 418.5 359.8137 415.8137 362.5 412.5 362.5 L 366.5 362.5 C 363.1863 362.5 360.5 359.8137 360.5 356.5 L 360.5 310.5 C 360.5 307.1863 363.1863 304.5 366.5 304.5 Z" fill="#ccc"/>
        <path d="M 366.5 304.5 L 412.5 304.5 C 415.8137 304.5 418.5 307.1863 418.5 310.5 L 418.5 356.5 C 418.5 359.8137 415.8137 362.5 412.5 362.5 L 366.5 362.5 C 363.1863 362.5 360.5 359.8137 360.5 356.5 L 360.5 310.5 C 360.5 307.1863 363.1863 304.5 366.5 304.5 Z" stroke="black" stroke-linecap="round" stroke-linejoin="round" stroke-width="1"/>
        <text transform="translate(365.5 314.5)" fill="black">
          <tspan font-family="Helvetica" font-weight="bold" font-size="32" fill="black" x="13.328125" y="31">E</tspan>
        </text>
      </g>
      <g id="Graphic_15">
        <path d="M 144.5 379.5 L 190.5 379.5 C 193.8137 379.5 196.5 382.1863 196.5 385.5 L 196.5 431.5 C 196.5 434.8137 193.8137 437.5 190.5 437.5 L 144.5 437.5 C 141.18629 437.5 138.5 434.8137 138.5 431.5 L 138.5 385.5 C 138.5 382.1863 141.18629 379.5 144.5 379.5 Z" fill="#ccc"/>
        <path d="M 144.5 379.5 L 190.5 379.5 C 193.8137 379.5 196.5 382.1863 196.5 385.5 L 196.5 431.5 C 196.5 434.8137 193.8137 437.5 190.5 437.5 L 144.5 437.5 C 141.18629 437.5 138.5 434.8137 138.5 431.5 L 138.5 385.5 C 138.5 382.1863 141.18629 379.5 144.5 379.5 Z" stroke="black" stroke-linecap="round" stroke-linejoin="round" stroke-width="1"/>
        <text transform="translate(143.5 389.5)" fill="black">
          <tspan font-family="Helvetica" font-weight="bold" font-size="32" fill="black" x="12.445312" y="31">H</tspan>
        </text>
      </g>
      <g id="Graphic_14">
        <path d="M 218.5 379.5 L 264.5 379.5 C 267.8137 379.5 270.5 382.1863 270.5 385.5 L 270.5 431.5 C 270.5 434.8137 267.8137 437.5 264.5 437.5 L 218.5 437.5 C 215.1863 437.5 212.5 434.8137 212.5 431.5 L 212.5 385.5 C 212.5 382.1863 215.1863 379.5 218.5 379.5 Z" fill="#ccc"/>
        <path d="M 218.5 379.5 L 264.5 379.5 C 267.8137 379.5 270.5 382.1863 270.5 385.5 L 270.5 431.5 C 270.5 434.8137 267.8137 437.5 264.5 437.5 L 218.5 437.5 C 215.1863 437.5 212.5 434.8137 212.5 431.5 L 212.5 385.5 C 212.5 382.1863 215.1863 379.5 218.5 379.5 Z" stroke="black" stroke-linecap="round" stroke-linejoin="round" stroke-width="1"/>
        <text transform="translate(217.5 389.5)" fill="black">
          <tspan font-family="Helvetica" font-weight="bold" font-size="32" fill="black" x="12.445312" y="31">A</tspan>
        </text>
      </g>
      <g id="Graphic_13">
        <path d="M 292.5 379.5 L 338.5 379.5 C 341.8137 379.5 344.5 382.1863 344.5 385.5 L 344.5 431.5 C 344.5 434.8137 341.8137 437.5 338.5 437.5 L 292.5 437.5 C 289.1863 437.5 286.5 434.8137 286.5 431.5 L 286.5 385.5 C 286.5 382.1863 289.1863 379.5 292.5 379.5 Z" fill="#ccc"/>
        <path d="M 292.5 379.5 L 338.5 379.5 C 341.8137 379.5 344.5 382.1863 344.5 385.5 L 344.5 431.5 C 344.5 434.8137 341.8137 437.5 338.5 437.5 L 292.5 437.5 C 289.1863 437.5 286.5 434.8137 286.5 431.5 L 286.5 385.5 C 286.5 382.1863 289.1863 379.5 292.5 379.5 Z" stroke="black" stroke-linecap="round" stroke-linejoin="round" stroke-width="1"/>
        <text transform="translate(291.5 389.5)" fill="black">
          <tspan font-family="Helvetica" font-weight="bold" font-size="32" fill="black" x="14.226562" y="31">T</tspan>
        </text>
      </g>
      <g id="Graphic_12">
        <path d="M 366.5 379.5 L 412.5 379.5 C 415.8137 379.5 418.5 382.1863 418.5 385.5 L 418.5 431.5 C 418.5 434.8137 415.8137 437.5 412.5 437.5 L 366.5 437.5 C 363.1863 437.5 360.5 434.8137 360.5 431.5 L 360.5 385.5 C 360.5 382.1863 363.1863 379.5 366.5 379.5 Z" fill="#ccc"/>
        <path d="M 366.5 379.5 L 412.5 379.5 C 415.8137 379.5 418.5 382.1863 418.5 385.5 L 418.5 431.5 C 418.5 434.8137 415.8137 437.5 412.5 437.5 L 366.5 437.5 C 363.1863 437.5 360.5 434.8137 360.5 431.5 L 360.5 385.5 C 360.5 382.1863 363.1863 379.5 366.5 379.5 Z" stroke="black" stroke-linecap="round" stroke-linejoin="round" stroke-width="1"/>
        <text transform="translate(365.5 389.5)" fill="black">
          <tspan font-family="Helvetica" font-weight="bold" font-size="32" fill="black" x="13.328125" y="31">E</tspan>
        </text>
      </g>
    </g>
  </g>
</svg>
